<?xml version="1.0" standalone="no"?>
<!DOCTYPE svg PUBLIC "-//W3C//DTD SVG 20010904//EN"
 "http://www.w3.org/TR/2001/REC-SVG-20010904/DTD/svg10.dtd">
<svg version="1.0" xmlns="http://www.w3.org/2000/svg"
 width="728.000000pt" height="728.000000pt" viewBox="0 0 728.000000 728.000000"
 preserveAspectRatio="xMidYMid meet">
<metadata>
Created by potrace 1.14, written by Peter Selinger 2001-2017
</metadata>
<g transform="translate(0.000000,728.000000) scale(0.100000,-0.100000)"
fill="#000000" stroke="none">
<path d="M0 5786 l0 -1494 45 -114 c125 -312 275 -539 501 -760 154 -151 289
-246 479 -338 241 -118 449 -170 710 -177 145 -5 366 13 417 32 11 4 16 -20
25 -112 31 -323 206 -604 495 -796 103 -69 194 -111 353 -165 149 -51 216 -62
380 -62 142 0 258 17 393 57 48 14 98 28 112 30 55 11 198 87 291 154 218 156
355 367 403 621 l11 57 55 -26 c457 -210 1014 -204 1475 18 203 97 355 201
506 347 l86 82 272 0 271 0 0 2070 0 2070 -3640 0 -3640 0 0 -1494z m2100
1147 c117 -19 308 -80 418 -134 160 -79 288 -174 432 -318 75 -75 155 -163
178 -196 191 -275 308 -567 358 -896 24 -155 24 -443 0 -599 -45 -297 -154
-594 -299 -817 l-45 -71 -79 -17 c-159 -35 -325 -106 -456 -195 -133 -89 -285
-267 -347 -404 -33 -71 -30 -70 -175 -103 -100 -23 -464 -26 -560 -5 -87 19
-234 61 -275 79 -185 80 -347 178 -454 275 -32 29 -65 56 -72 61 -24 14 -199
223 -249 298 -100 150 -197 354 -246 524 -63 213 -89 392 -89 610 0 667 326
1307 848 1663 21 14 82 49 137 78 317 168 633 222 975 167z m3661 -372 c722
-166 1240 -796 1330 -1616 18 -167 6 -437 -26 -608 -132 -702 -603 -1272
-1211 -1467 -182 -58 -229 -65 -464 -65 -170 0 -232 4 -297 18 -131 29 -259
74 -381 134 -108 55 -112 58 -123 97 -5 23 -15 57 -21 76 -15 52 -103 214
-150 278 -95 130 -262 270 -417 351 -92 48 -94 50 -152 221 -63 182 -94 335
-108 539 -41 573 164 1155 546 1551 248 258 512 412 831 484 148 34 153 35
367 31 144 -3 211 -9 276 -24z"/>
<path d="M2502 5356 c-197 -74 -331 -262 -362 -510 -34 -272 105 -550 320
-645 230 -101 494 12 615 263 100 207 97 437 -7 639 -116 223 -356 331 -566
253z m261 -400 c111 -47 164 -231 106 -366 -29 -68 -96 -127 -154 -136 -158
-23 -268 206 -187 388 22 51 83 115 116 121 45 9 88 6 119 -7z"/>
<path d="M4438 5089 c-121 -18 -253 -101 -335 -212 -92 -126 -131 -235 -140
-393 -10 -182 44 -341 159 -460 33 -35 67 -64 73 -64 7 0 18 -7 25 -15 22 -26
136 -55 219 -55 134 0 241 48 347 154 74 74 124 156 165 266 21 58 24 82 24
215 0 120 -4 161 -19 205 -66 194 -206 327 -380 359 -33 6 -64 10 -70 10 -6
-1 -37 -5 -68 -10z m64 -405 c117 -60 134 -285 31 -412 -69 -84 -155 -104
-235 -53 -65 41 -93 103 -92 201 2 199 156 336 296 264z"/>
</g>
</svg>
